<svg id="图层_1" data-name="图层 1" xmlns="http://www.w3.org/2000/svg" xmlns:xlink="http://www.w3.org/1999/xlink" viewBox="0 0 98 98"><defs><style>.cls-1{fill:#fff;}.cls-2{fill:url(#未命名的渐变_50);}.cls-3{fill:url(#未命名的渐变_50-2);}.cls-4{fill:url(#未命名的渐变_50-3);}.cls-5{fill:url(#未命名的渐变_50-4);}.cls-6{fill:url(#未命名的渐变_50-5);}</style><linearGradient id="未命名的渐变_50" x1="49" y1="10" x2="49" y2="88" gradientUnits="userSpaceOnUse"><stop offset="0" stop-color="#bfe8cf"/><stop offset="1" stop-color="#56997c"/></linearGradient><linearGradient id="未命名的渐变_50-2" x1="34.52" y1="55.1" x2="34.52" y2="89.03" xlink:href="#未命名的渐变_50"/><linearGradient id="未命名的渐变_50-3" x1="75.43" y1="53.16" x2="75.43" y2="86.48" xlink:href="#未命名的渐变_50"/><linearGradient id="未命名的渐变_50-4" x1="54.5" y1="39.44" x2="54.5" y2="88.79" xlink:href="#未命名的渐变_50"/><linearGradient id="未命名的渐变_50-5" x1="40.74" y1="52.04" x2="40.74" y2="88.97" xlink:href="#未命名的渐变_50"/></defs><title>logo</title><rect class="cls-1" width="98" height="98" rx="12"/><circle class="cls-2" cx="49" cy="49" r="39"/><path class="cls-1" d="M78.31,36a55.63,55.63,0,0,0,7.88-.53,39.12,39.12,0,0,0-4.39-8c-1.13-.06-2.29-.1-3.49-.1-.43,0-1.27,0-1.27,0,0-1.84-6.24-3.33-14-3.33a47.23,47.23,0,0,0-8.79.75,55.89,55.89,0,0,0-7-.42c-.43,0-1.27,0-1.27,0C46,22.49,39.8,21,32.09,21a47.09,47.09,0,0,0-9,.79,39.23,39.23,0,0,0-8,10.74A47,47,0,0,0,22,33h7.49a2.44,2.44,0,0,0,.44.39c.24.17-.14.37-.81.42C23.25,34.26,19,35.66,19,37.33c0,2,6.24,3.67,14,3.67H54.5c.55,0,1.08,0,1.61,0,.72,0,1.45,0,2.2,0,9.1,0,16.48-1.94,16.48-4.33a1.42,1.42,0,0,0-.21-.67c.52,0,1,0,1.53,0C76.83,36,77.56,36,78.31,36Z" transform="translate(-1 -1)"/><path class="cls-3" d="M19,73.7S39,23,50,89C50,89,32.06,90.4,19,73.7Z" transform="translate(-1 -1)"/><path class="cls-4" d="M87.5,60.75S59.58,32,63.79,86.48C63.79,86.48,81,81.5,87.5,60.75Z" transform="translate(-1 -1)"/><path class="cls-5" d="M38,84.47,49.09,41.39A2.61,2.61,0,0,1,54,41L70.89,80.31a2.61,2.61,0,0,1-1.14,3.32,42.6,42.6,0,0,1-29.88,4A2.62,2.62,0,0,1,38,84.47Z" transform="translate(-1 -1)"/><path class="cls-6" d="M27.48,81.86l11-28.24a2.48,2.48,0,0,1,4.68.16l10.9,35A40.54,40.54,0,0,1,27.48,81.86Z" transform="translate(-1 -1)"/><path class="cls-1" d="M63.5,59.22h-.84C62.66,58,58.5,57,53.36,57s-9.3,1-9.3,2.22a1,1,0,0,0,.49.71c.16.11-.09.25-.54.28-3.87.29-6.71,1.23-6.71,2.35,0,1.35,4.16,2.44,9.3,2.44H61c.36,0,.71,0,1.07,0s1,0,1.46,0c6.07,0,11-1.29,11-2.89S69.57,59.22,63.5,59.22Z" transform="translate(-1 -1)"/><path class="cls-1" d="M45.5,63.22h-.84C44.66,62,40.5,61,35.36,61s-9.3,1-9.3,2.22a1,1,0,0,0,.49.71c.16.11-.09.25-.54.28-3.87.29-6.71,1.23-6.71,2.35,0,1.35,4.16,2.44,9.3,2.44H43c.36,0,.71,0,1.07,0s1,0,1.46,0c6.07,0,11-1.29,11-2.89S51.57,63.22,45.5,63.22Z" transform="translate(-1 -1)"/></svg>