<?xml version="1.0" standalone="no"?><!DOCTYPE svg PUBLIC "-//W3C//DTD SVG 1.1//EN" "http://www.w3.org/Graphics/SVG/1.1/DTD/svg11.dtd"><svg t="1649583215414" class="icon" viewBox="0 0 1024 1024" version="1.1" xmlns="http://www.w3.org/2000/svg" p-id="6849" xmlns:xlink="http://www.w3.org/1999/xlink" width="200" height="200"><defs><style type="text/css">@font-face { font-family: feedback-iconfont; src: url("//at.alicdn.com/t/font_1031158_u69w8yhxdu.woff2?t=1630033759944") format("woff2"), url("//at.alicdn.com/t/font_1031158_u69w8yhxdu.woff?t=1630033759944") format("woff"), url("//at.alicdn.com/t/font_1031158_u69w8yhxdu.ttf?t=1630033759944") format("truetype"); }
</style></defs><path d="M 679.035 525.681 c -9.97376 9.97376 -26.1325 9.97376 -36.1267 0 l -105.288 -105.492 l 0 270.5 c 0 14.0698 -11.4074 25.5386 -25.5386 25.5386 c -14.1107 0 -25.5386 -11.4893 -25.5386 -25.5386 L 486.543 420.209 l -105.267 105.492 c -9.99424 9.97376 -26.1734 9.97376 -36.1267 0 c -9.99424 -10.2195 -9.99424 -26.3168 0 -36.2701 l 144.486 -144.589 c 6.12352 -6.12352 14.4998 -7.92576 22.4461 -6.38976 c 7.94624 -1.536 16.3226 0.24576 22.4666 6.38976 l 144.486 144.589 C 689.029 499.384 689.029 515.461 679.035 525.681 L 679.035 525.681 L 679.035 525.681 Z M 512.102 103.199 c -225.731 0 -408.699 182.886 -408.699 408.699 c 0 225.792 182.968 408.699 408.699 408.699 c 225.731 0 408.699 -182.907 408.699 -408.699 C 920.801 286.085 737.833 103.199 512.102 103.199 L 512.102 103.199 L 512.102 103.199 Z" fill="#FF6F67" p-id="6850"></path></svg>